<svg width="113" height="97" viewBox="0 0 113 97" fill="none" xmlns="http://www.w3.org/2000/svg">
<path d="M81.377 13.7567C65.7873 5.43208 47.0309 5.62282 31.6137 14.2627L31.0247 14.5928C29.3384 15.5378 27.2054 14.9369 26.2604 13.2506C25.3154 11.5644 25.9163 9.43131 27.6026 8.48632L28.1916 8.15623C45.6905 -1.65028 66.9796 -1.86677 84.6743 7.58186L86.3041 8.45215C88.0092 9.36266 88.6534 11.483 87.7429 13.1882C86.8324 14.8933 84.712 15.5375 83.0069 14.627L81.377 13.7567Z" fill="#0064D2"/>
<path d="M93.3213 36.5985C75.0003 12.8976 39.1826 13.0292 21.0364 36.8642L20.1496 38.029C18.9787 39.567 16.7827 39.8645 15.2447 38.6936C13.7067 37.5227 13.4091 35.3267 14.58 33.7887L15.4668 32.6239C36.4015 5.1263 77.7232 4.9744 98.8595 32.3174L99.3734 32.9822C100.556 34.5115 100.274 36.7096 98.7448 37.8918C97.2155 39.074 95.0173 38.7926 93.8351 37.2633L93.3213 36.5985Z" fill="#0064D2"/>
<path d="M70.2264 38.481C64.4828 35.2472 57.7455 34.2537 51.3129 35.6921L51.0056 35.7608C48.2266 36.3822 45.559 37.4246 43.095 38.852L41.2981 39.893C36.4607 42.6954 32.8364 47.1944 31.1283 52.5176C27.948 62.4282 29.3093 73.2377 34.8475 82.0504L37.861 86.8456L43.7325 94.0844C44.9502 95.5856 47.1543 95.8155 48.6555 94.5978C50.1568 93.3801 50.3867 91.176 49.169 89.6748L43.5633 82.7636L40.7743 78.3258C36.3357 71.2627 35.2446 62.5994 37.7935 54.6564C38.9715 50.9854 41.4709 47.8826 44.807 45.95L46.6039 44.909C48.4507 43.8392 50.4502 43.0578 52.5331 42.5921L52.8404 42.5234C57.5854 41.4624 62.5553 42.1952 66.7922 44.5807L67.7942 45.1448C73.1551 48.1632 76.847 53.4616 77.8219 59.5361L78.0553 60.99C78.3616 62.8985 80.1571 64.1974 82.0657 63.8911C83.9742 63.5848 85.2731 61.7893 84.9668 59.8807L84.7335 58.4268C83.4205 50.2458 78.4484 43.1102 71.2284 39.0452L70.2264 38.481Z" fill="#0064D2"/>
<path d="M45.5176 25.2377C61.6031 20.0532 79.1998 25.7734 89.162 39.4253C90.5176 41.283 91.6328 43.3047 92.4811 45.4422L95.8725 53.9887C98.4343 60.4444 96.474 67.816 91.0438 72.1464C86.8002 75.5305 81.1153 76.4962 75.9923 74.7032L73.9822 73.9996C70.2639 72.6982 67.4637 69.5939 66.5513 65.7616L64.8388 58.5691C64.7192 58.0669 64.4606 57.6008 64.0938 57.2299C59.5873 52.6734 51.9113 54.0304 49.2665 59.8215C48.5508 61.3888 48.2934 63.1416 48.5266 64.8554C49.974 75.4939 57.2415 84.4886 67.3397 88.09L71.3668 89.5263C73.1875 90.1756 74.1371 92.1779 73.4877 93.9986C72.8384 95.8193 70.8361 96.7688 69.0154 96.1195L64.9883 94.6833C52.4119 90.198 43.3885 79.0143 41.5905 65.7991C41.1797 62.78 41.6306 59.6911 42.8991 56.9135C47.5964 46.6282 61.1494 44.2982 69.0708 52.3076C70.3355 53.5863 71.2306 55.1929 71.6484 56.9477L73.3609 64.1402C73.7211 65.6532 74.8267 66.8788 76.2946 67.3926L78.3047 68.0961C81.1552 69.0938 84.3183 68.5565 86.6794 66.6736C89.7007 64.2642 90.7915 60.1626 89.3661 56.5706L85.9746 48.0241C85.3441 46.4352 84.5152 44.9325 83.5075 43.5516C75.3261 32.3401 60.875 27.6424 47.665 31.9002L43.8579 33.1273L41.6506 34.1209C29.2865 39.6866 22.38 53.0307 24.9754 66.339L27.4034 78.7891C27.7734 80.6864 26.5353 82.5244 24.6381 82.8944C22.7408 83.2644 20.9028 82.0263 20.5328 80.129L18.1048 67.6789C14.8872 51.1805 23.4494 34.6377 38.7772 27.7378L41.3397 26.5843L45.5176 25.2377Z" fill="#0064D2"/>
<path d="M59.535 60.2261C59.4194 58.2966 57.7615 56.826 55.832 56.9416C53.9025 57.0571 52.4319 58.715 52.5475 60.6445C52.846 65.6298 54.8723 72.8408 60.1297 78.4522C65.5535 84.2412 74.0601 87.9406 86.3947 86.2275C88.3093 85.9615 89.6459 84.1939 89.38 82.2793C89.114 80.3646 87.3464 79.0281 85.4317 79.294C75.1265 80.7253 68.9592 77.638 65.2379 73.6662C61.3503 69.5168 59.7605 63.9929 59.535 60.2261Z" fill="#0064D2"/>
<rect y="72.7616" width="113" height="6.80062" rx="3.40031" fill="#1E89FF"/>
<path opacity="0.4" d="M20.5132 46.0125H92.4868L108.938 72.7616H4.06213L20.5132 46.0125Z" fill="url(#paint0_linear_109_5155)"/>
<defs>
<linearGradient id="paint0_linear_109_5155" x1="56.5" y1="46.0125" x2="56.5" y2="72.7616" gradientUnits="userSpaceOnUse">
<stop stop-color="#9DD0FF" stop-opacity="0"/>
<stop offset="1" stop-color="#0064D2"/>
</linearGradient>
</defs>
</svg>
