<svg width="16" height="16" viewBox="0 0 16 16" fill="none" xmlns="http://www.w3.org/2000/svg">
<rect width="16" height="16" rx="8" fill="#0066FF" fill-opacity="0.05"/>
<rect x="0.5" y="0.5" width="15" height="15" rx="7.5" stroke="#012276" stroke-opacity="0.05"/>
<path d="M10.1002 5.90334C9.97023 5.77334 9.76023 5.77334 9.63023 5.90334L8.00023 7.53001L6.37023 5.90001C6.24023 5.77001 6.03023 5.77001 5.90023 5.90001C5.77023 6.03001 5.77023 6.24001 5.90023 6.37001L7.53023 8.00001L5.90023 9.63001C5.77023 9.76001 5.77023 9.97001 5.90023 10.1C6.03023 10.23 6.24023 10.23 6.37023 10.1L8.00023 8.47001L9.63023 10.1C9.76023 10.23 9.97023 10.23 10.1002 10.1C10.2302 9.97001 10.2302 9.76001 10.1002 9.63001L8.47023 8.00001L10.1002 6.37001C10.2269 6.24334 10.2269 6.03001 10.1002 5.90334Z" fill="#0064D2"/>
</svg>
