<svg width="39" height="32" viewBox="0 0 39 32" fill="none" xmlns="http://www.w3.org/2000/svg">
<g clip-path="url(#clip0_109_2680)">
<rect x="1.35718" y="0.5" width="36.5714" height="31" rx="15.5" stroke="#F2F3F6"/>
<g opacity="0.4">
<path d="M24.0572 11.8067C23.7972 11.5467 23.3772 11.5467 23.1172 11.8067L19.8572 15.06L16.5972 11.8C16.3372 11.54 15.9172 11.54 15.6572 11.8C15.3972 12.06 15.3972 12.48 15.6572 12.74L18.9172 16L15.6572 19.26C15.3972 19.52 15.3972 19.94 15.6572 20.2C15.9172 20.46 16.3372 20.46 16.5972 20.2L19.8572 16.94L23.1172 20.2C23.3772 20.46 23.7972 20.46 24.0572 20.2C24.3172 19.94 24.3172 19.52 24.0572 19.26L20.7972 16L24.0572 12.74C24.3105 12.4867 24.3105 12.06 24.0572 11.8067Z" fill="#0064D2"/>
</g>
</g>
<defs>
<clipPath id="clip0_109_2680">
<rect width="37.5714" height="32" fill="white" transform="translate(0.857178)"/>
</clipPath>
</defs>
</svg>
