<svg width="31" height="26" viewBox="0 0 31 26" fill="none" xmlns="http://www.w3.org/2000/svg">
<path d="M23.4084 12.4026C23.4084 12.5312 21.6017 12.6517 19.0225 12.7529C18.567 12.4945 18.2213 12.2348 17.9683 12.011C21.0962 12.1216 23.4084 12.2581 23.4084 12.4026Z" fill="#747F8A"/>
<path d="M21.5556 8.04816C21.5556 8.15538 20.0412 8.25594 17.8762 8.34251C18.1866 8.16138 18.5062 7.9789 18.8418 7.79577C20.4774 7.87102 21.5556 7.95826 21.5556 8.04816Z" fill="#747F8A"/>
<path d="M5.42397 17.4161C4.42172 17.4281 3.54266 17.4327 2.85607 17.4327C1.86779 17.4327 1.06732 17.1284 1.06732 16.7508C1.06732 16.3752 1.86779 16.0709 2.85607 16.0709C3.73112 16.0709 4.91652 16.0802 6.27639 16.0975C5.75029 16.8567 5.50056 17.3129 5.47725 17.3415C5.46193 17.3635 5.44262 17.3895 5.42397 17.4161Z" fill="#747F8A"/>
<path d="M5.96385 18.3281C6.29416 18.727 6.61115 19.0626 7.03536 19.4296C7.03536 19.4296 7.19519 19.658 7.68067 19.4622C8.1748 19.2611 8.59369 18.9874 9.06585 18.3541C10.4444 18.3774 11.9061 18.408 13.3452 18.4406C13.4638 18.6131 13.7042 18.9701 14.0005 19.4103C9.98885 19.5142 5.63487 19.5761 3.4046 19.5761C2.4756 19.5761 1.72174 19.2877 1.72174 18.9348C1.72174 18.5798 2.4756 18.2935 3.4046 18.2935C4.08387 18.2935 4.95893 18.2981 5.96052 18.3095C5.95985 18.3188 5.96385 18.3281 5.96385 18.3281Z" fill="#747F8A"/>
<path d="M4.41195 21.6736C3.5875 21.6736 2.91956 21.4199 2.91956 21.1069C2.91956 20.7933 3.5875 20.5389 4.41195 20.5389C6.59294 20.5389 11.0641 20.6055 14.8934 20.714C15.0778 20.9784 15.2623 21.2414 15.4374 21.4832C11.495 21.5991 6.69616 21.6736 4.41195 21.6736Z" fill="#747F8A"/>
<path d="M17.1298 23.4929C13.9139 23.6341 8.38452 23.7286 6.08699 23.7286C5.44035 23.7286 4.91492 23.5268 4.91492 23.2824C4.91492 23.036 5.44035 22.8356 6.08699 22.8356C8.28463 22.8356 13.4457 22.9222 16.7029 23.052C16.8501 23.2099 16.9939 23.3584 17.1298 23.4929Z" fill="#747F8A"/>
<path d="M8.73987 24.6991C10.6372 24.6991 16.413 24.8422 16.413 25.0154C16.413 25.1912 10.6365 25.3331 8.73987 25.3331C8.37027 25.3331 8.07126 25.1912 8.07126 25.0154C8.07126 24.8422 8.37027 24.6991 8.73987 24.6991Z" fill="#747F8A"/>
<path d="M8.76087 13.0206C6.37277 13.0612 4.23307 13.0838 2.85588 13.0838C1.86828 13.0838 1.06714 12.7795 1.06714 12.4026C1.06714 12.0263 1.86828 11.7206 2.85588 11.7206C4.4555 11.7206 7.084 11.7513 9.93361 11.8052C9.51006 12.2241 9.11848 12.6316 8.76087 13.0206Z" fill="#747F8A"/>
<path d="M20.4742 9.97467C21.8733 10.0506 22.7537 10.1338 22.7537 10.2204C22.7537 10.3156 21.6882 10.4069 20.0393 10.4881C20.3916 10.2231 20.4688 9.99199 20.4742 9.97467Z" fill="#747F8A"/>
<path d="M3.4049 10.8607C2.47523 10.8607 1.72137 10.5743 1.72137 10.22C1.72137 9.86642 2.47523 9.57872 3.4049 9.57872C5.31152 9.57872 8.7698 9.62534 12.2387 9.70193C11.8132 10.0609 11.4096 10.4158 11.0287 10.7641C7.98398 10.8254 5.08975 10.8607 3.4049 10.8607Z" fill="#747F8A"/>
<path d="M13.7724 8.47063C10.2255 8.56053 6.38299 8.61581 4.41177 8.61581C3.58733 8.61581 2.92004 8.36208 2.92004 8.04842C2.92004 7.73475 3.58733 7.47969 4.41177 7.47969C6.58743 7.47969 11.048 7.54762 14.8719 7.65551C14.6814 7.79402 14.4896 7.93254 14.2951 8.07772C14.118 8.20958 13.9435 8.33944 13.7724 8.47063Z" fill="#747F8A"/>
<path d="M6.08669 6.31828C5.44005 6.31828 4.91461 6.11916 4.91461 5.8721C4.91461 5.62569 5.44005 5.42524 6.08669 5.42524C8.52606 5.42524 14.6102 5.53313 17.7002 5.68696C17.5031 5.81616 17.306 5.95001 17.1068 6.08453C13.8863 6.22372 8.37955 6.31828 6.08669 6.31828Z" fill="#747F8A"/>
<path d="M2.67165 15.2704C1.66607 15.2704 0.849609 14.9607 0.849609 14.5765C0.849609 14.1949 1.66607 13.8839 2.67165 13.8839C3.9323 13.8839 5.81893 13.9025 7.95264 13.9352C7.55174 14.4067 7.20345 14.8435 6.9051 15.2351C5.20626 15.2578 3.72119 15.2704 2.67165 15.2704Z" fill="#747F8A"/>
<path d="M8.07159 4.13858C8.07159 3.96343 8.37061 3.82158 8.74021 3.82158C10.6368 3.82158 16.4133 3.96343 16.4133 4.13858C16.4133 4.31239 10.6375 4.4549 8.74021 4.4549C8.37061 4.4549 8.07159 4.31239 8.07159 4.13858Z" fill="#747F8A"/>
<path d="M23.5977 14.0636C23.611 14.4092 23.609 14.7522 23.5917 15.0885C20.2313 15.2217 17.0447 15.4242 17.0447 15.6519C17.0447 15.8757 20.1601 16.0761 23.4818 16.2086C23.4232 16.5922 23.348 16.9685 23.2561 17.3374C19.9816 17.4713 16.9428 17.6684 16.9428 17.8902C16.9428 18.1039 19.7798 18.2964 22.9211 18.4303C22.7772 18.8312 22.6141 19.2207 22.4309 19.5937C19.7332 19.7235 17.5036 19.8967 17.5036 20.0858C17.5036 20.2623 19.4515 20.4254 21.9068 20.5513C21.769 20.7757 21.6251 20.9955 21.4746 21.2033C21.3148 21.4297 21.141 21.6541 20.9572 21.8746C19.4222 21.9911 18.3686 22.1236 18.3686 22.2655C18.3686 22.3873 19.1232 22.5012 20.2859 22.6031C19.6513 23.2311 18.9014 23.8178 18.0177 24.3299C18.0177 24.3299 16.9768 23.4335 16.1177 22.3867C15.3519 21.453 13.727 18.9917 13.3447 18.4409C12.9618 17.8902 12.7101 17.729 12.2625 17.8888C11.6625 18.1013 10.9653 18.2078 10.7508 18.2078C10.5364 18.2078 10.4185 18.1246 10.7781 17.9821C11.1364 17.8376 12.5529 17.1689 13.2502 15.7871C14.0333 14.2308 13.3447 12.0817 13.3447 12.0817C13.0817 13.2305 12.4836 13.6594 12.4836 13.6594C12.6768 12.5925 12.4663 11.6256 11.9396 10.947L11.6459 12.2975C11.6459 12.2975 11.4621 12.2882 11.0072 12.6705C10.553 13.0534 10.4279 13.6114 10.4279 13.6114C10.7855 13.7553 11.2157 13.3963 11.2157 13.3963C10.6663 15.4521 9.87844 17.1257 9.30373 18.0107C8.72968 18.8958 8.25619 19.2294 7.6808 19.4631C7.19533 19.6576 7.0355 19.4292 7.0355 19.4292C6.61129 19.0629 6.29429 18.7273 5.96398 18.3284C5.96398 18.3284 5.93734 18.2818 6.02658 18.2831C6.26299 18.2864 6.68387 17.8822 6.77578 17.7144C6.881 17.5219 6.86968 17.3747 6.81707 17.3647C6.76512 17.3561 6.67522 17.5086 6.21904 17.7963C5.76553 18.0833 5.55709 17.8842 5.40592 17.7244C5.28871 17.5972 5.40392 17.44 5.47717 17.3414C5.54643 17.2535 7.94585 12.779 14.295 8.07805C22.6154 1.91734 27.929 0.253798 28.2334 0.133926C28.4345 0.054678 28.7628 -0.0498753 28.8374 0.0267086C28.92 0.113281 28.9606 0.182539 28.9493 0.283098C28.9386 0.382992 28.8853 0.434271 28.5004 0.604088C25.3065 2.01124 21.5779 4.35672 19.4595 5.72192C16.8543 6.99122 14.367 8.80394 14.2764 8.84723C14.0759 8.97176 14.2238 9.1529 14.345 9.07698C18.7442 6.15079 23.902 4.1576 29.6019 2.52469C29.8743 2.44744 30.0235 2.44744 30.0687 2.50737C30.12 2.57397 30.142 2.64989 30.15 2.7338C30.1573 2.83835 30.0707 2.89363 29.837 2.98486C23.7136 5.25975 19.2004 7.37281 16.2975 9.32605C16.2975 9.32605 15.9972 9.50718 15.9932 9.71696C15.9919 9.79687 16.1544 9.8062 16.1544 9.8062C17.6075 9.83217 19.55 9.91741 20.4744 9.97135C20.4744 9.97135 20.3425 10.4395 19.4575 10.8164C18.7742 11.1081 18.1416 11.0615 17.5156 11.0668C17.3764 11.0642 17.2585 11.2047 17.3697 11.3545C17.4257 11.4291 18.7576 13.5735 23.5977 14.0636Z" fill="#5C0632"/>
</svg>
