<svg width="80" height="48" viewBox="0 0 80 48" fill="none" xmlns="http://www.w3.org/2000/svg">
<rect width="80" height="48" rx="24" fill="#0064D2"/>
<path d="M30.8318 31.5125C31.2402 31.9208 31.8985 31.9208 32.3068 31.5125L39.2318 24.5875C39.5568 24.2625 39.5568 23.7375 39.2318 23.4125L32.3068 16.4875C31.8985 16.0792 31.2402 16.0792 30.8318 16.4875C30.4235 16.8958 30.4235 17.5542 30.8318 17.9625L36.8652 24.0042L30.8235 30.0458C30.4235 30.4458 30.4235 31.1125 30.8318 31.5125Z" fill="white"/>
<path d="M40.8318 31.5125C41.2402 31.9208 41.8985 31.9208 42.3068 31.5125L49.2318 24.5875C49.5568 24.2625 49.5568 23.7375 49.2318 23.4125L42.3068 16.4875C41.8985 16.0792 41.2402 16.0792 40.8318 16.4875C40.4235 16.8958 40.4235 17.5542 40.8318 17.9625L46.8652 24.0042L40.8235 30.0458C40.4235 30.4458 40.4235 31.1125 40.8318 31.5125Z" fill="white"/>
</svg>
